<svg width="153" height="143" viewBox="0 0 153 143" fill="none" xmlns="http://www.w3.org/2000/svg">
<mask id="mask0_5_129" style="mask-type:alpha" maskUnits="userSpaceOnUse" x="0" y="1" width="116" height="106">
<rect x="0.926758" y="67.7516" width="107.787" height="48.9347" transform="rotate(-38.1292 0.926758 67.7516)" fill="#D9D9D9"/>
</mask>
<g mask="url(#mask0_5_129)">
<path d="M82.6242 25.1932L80.8112 50.285L99.6438 29.0272L88.0046 53.2645L113.292 37.8954L93.2302 58.3547L121.922 50.728L95.8576 64.9417L124.493 65.9774L95.5698 72.231L120.695 81.8041L92.4017 79.3434L110.986 96.2992L86.7354 85.4211L96.5379 107.715L79.2542 89.7309L79.0924 114.673L70.8606 91.7531L60.7538 116.336L62.5669 91.2437L43.7343 112.501L55.3734 88.2642L30.0864 103.633L50.1478 83.174L21.4565 90.8007L47.5205 76.587L18.8853 75.5513L47.8082 69.2977L22.6831 59.7246L50.9763 62.1853L32.3917 45.2295L56.6426 56.1076L46.8401 33.8142L64.1238 51.7978L64.2857 26.8557L72.5174 49.7756L82.6242 25.1932Z" fill="#032A0A"/>
</g>
<mask id="mask1_5_129" style="mask-type:alpha" maskUnits="userSpaceOnUse" x="1" y="0" width="116" height="109">
<rect x="1.1084" y="69.8669" width="107.797" height="50.9278" transform="rotate(-39.8328 1.1084 69.8669)" fill="#D9D9D9"/>
</mask>
<g mask="url(#mask1_5_129)">
<path d="M55.4119 30.2911L68.3203 50.9604L73.5498 25.9132L76.7774 50.1867L91.4661 26.9928L84.6236 51.9427L107 33.3996L90.9126 56.0166L118.278 44.3608L94.8859 61.917L123.939 58.5544L96.0643 68.9323L123.301 74.2684L94.3056 76.2162L116.441 89.6075L89.8219 82.8903L104.186 102.722L83.154 88.1495L88.0147 112.029L75.1062 91.3595L69.8768 116.407L66.6492 92.1332L51.9605 115.327L58.803 90.3771L36.4266 108.92L52.514 86.3033L25.1488 97.9591L48.5407 80.4028L19.4873 83.7655L47.3623 73.3876L20.1251 68.0515L49.121 66.1037L26.9852 52.7124L53.6047 59.4296L39.2402 39.5983L60.2726 54.1704L55.4119 30.2911Z" fill="#6C7B1B"/>
</g>
<mask id="mask2_5_129" style="mask-type:alpha" maskUnits="userSpaceOnUse" x="35" y="34" width="60" height="56">
<rect x="35.5234" y="69.0261" width="53.9748" height="26.5164" transform="rotate(-39.1755 35.5234 69.0261)" fill="#D9D9D9"/>
</mask>
<g mask="url(#mask2_5_129)">
<path d="M64.0268 50.5403L70.4438 60.8898L72.9369 48.4147L74.6023 60.5309L81.7554 49.0102L78.4683 61.4316L89.4187 52.2549L81.5755 63.4834L95.0024 57.7575L83.5493 66.4388L97.8331 64.8543L84.1514 69.9413L97.5694 72.6893L83.3093 73.5684L94.243 80.3175L81.1245 76.8826L88.2552 86.8188L77.8606 79.4843L80.3282 91.4091L73.9112 81.0596L71.4181 93.5347L69.7528 81.4185L62.5996 92.9392L65.8867 80.5177L54.9363 89.6944L62.7795 78.4659L49.3526 84.1918L60.8057 75.5106L46.5219 77.095L60.2036 72.0081L46.7856 69.26L61.0457 68.381L50.112 61.6318L63.2305 65.0667L56.0998 55.1305L66.4944 62.465L64.0268 50.5403Z" fill="url(#paint0_radial_5_129)"/>
</g>
<path d="M133.322 50.712L125.542 64.2264L123.251 46.7719L120.813 63.259L113.164 46.5874L116.363 64.0586L104.277 50.181L112.727 66.5289L97.6625 57.119L110.344 70.372L94.1178 66.5648L109.501 75.1242L94.0708 77.3789L110.301 80.2124L97.527 88.2571L112.646 85.023L104.07 97.8873L116.254 88.9755L112.909 105.108L120.69 91.5934L122.98 109.048L125.418 92.5609L133.068 109.232L129.869 91.7613L141.955 105.639L133.505 89.2909L148.569 98.7009L135.888 85.4479L152.114 89.2551L136.731 80.6957L152.161 78.441L135.931 75.6074L148.705 67.5628L133.586 70.7969L142.162 57.9326L129.977 66.8443L133.322 50.712Z" fill="#032A0A"/>
<path d="M145.526 62.7774L131.722 68.9097L137.732 54.2321L127.647 65.5762L128.157 48.5661L123.009 63.7539L117.956 46.4629L118.365 63.6624L108.359 48.1761L114.276 65.3128L100.524 53.4992L111.235 68.5061L95.3958 61.7899L109.609 72.8571L93.593 72.0485L109.595 77.841L95.3331 83.0375L111.193 82.8567L100.406 93.4315L114.211 87.2992L108.2 101.977L118.285 90.6326L117.775 107.643L122.924 92.455L127.976 109.746L127.568 92.5465L137.573 108.033L131.657 90.896L145.408 102.71L134.697 87.7027L150.537 94.4189L136.323 83.3517L152.339 84.1603L136.338 78.3678L150.599 73.1714L134.74 73.3521L145.526 62.7774Z" fill="#6C7B1B"/>
<path d="M134.072 70.1845L127.184 73.2712L130.235 65.9995L125.173 71.6432L125.499 63.2437L122.875 70.7635L120.438 62.2493L120.567 70.7383L115.66 63.1364L118.527 71.5707L111.742 65.7979L117.002 73.1602L109.158 69.9128L116.175 75.3151L108.217 74.9849L116.146 77.7756L109.035 80.4023L116.919 80.2448L111.512 85.5116L118.4 82.4249L115.349 89.6965L120.411 84.0529L120.085 92.4524L122.709 84.9326L125.146 93.4468L125.017 84.9578L129.924 92.5597L127.057 84.1254L133.842 89.8982L128.582 82.5359L136.426 85.7833L129.409 80.381L137.367 80.7112L129.438 77.9205L136.549 75.2938L128.665 75.4513L134.072 70.1845Z" fill="url(#paint1_radial_5_129)"/>
<path d="M108.469 106.012C108.933 105.784 109.494 105.975 109.723 106.439C109.951 106.903 109.76 107.464 109.296 107.693L108.469 106.012ZM109.296 107.693C104.018 110.291 92.742 119.826 90.771 136.892L88.9103 136.677C90.9674 118.866 102.73 108.837 108.469 106.012L109.296 107.693Z" fill="url(#paint2_linear_5_129)"/>
<path d="M77.425 106.852C82.9331 109.564 94.4526 119.346 96.4667 136.784" stroke="url(#paint3_linear_5_129)" stroke-width="1.87309"/>
<path d="M122.006 77.656C111.084 83.0323 88.2427 102.429 84.2492 137.006" stroke="url(#paint4_linear_5_129)" stroke-width="1.87309"/>
<path d="M68.425 69.3389C79.6377 75.9132 102.454 98.345 104.019 135.478" stroke="url(#paint5_linear_5_129)" stroke-width="2"/>
<defs>
<radialGradient id="paint0_radial_5_129" cx="0" cy="0" r="1" gradientUnits="userSpaceOnUse" gradientTransform="translate(72.1775 70.9747) rotate(68.2544) scale(22 26.5)">
<stop stop-color="#B3A12C"/>
<stop offset="1" stop-color="#627810"/>
</radialGradient>
<radialGradient id="paint1_radial_5_129" cx="0" cy="0" r="1" gradientUnits="userSpaceOnUse" gradientTransform="translate(122.792 77.848) rotate(145.808) scale(13.6371 16.4265)">
<stop stop-color="#B3A12C"/>
<stop offset="1" stop-color="#627810"/>
</radialGradient>
<linearGradient id="paint2_linear_5_129" x1="103.419" y1="105.426" x2="94.8885" y2="138.102" gradientUnits="userSpaceOnUse">
<stop stop-color="#AF9F2B"/>
<stop offset="1" stop-color="#032A0A"/>
</linearGradient>
<linearGradient id="paint3_linear_5_129" x1="82.8884" y1="105.426" x2="91.4189" y2="138.102" gradientUnits="userSpaceOnUse">
<stop stop-color="#AF9F2B"/>
<stop offset="1" stop-color="#032A0A"/>
</linearGradient>
<linearGradient id="paint4_linear_5_129" x1="111.173" y1="74.8279" x2="94.2581" y2="139.619" gradientUnits="userSpaceOnUse">
<stop stop-color="#AF9F2B"/>
<stop offset="1" stop-color="#032A0A"/>
</linearGradient>
<linearGradient id="paint5_linear_5_129" x1="80.1812" y1="67.1694" x2="93.1569" y2="137.482" gradientUnits="userSpaceOnUse">
<stop offset="0.34368" stop-color="#AB9D29"/>
<stop offset="1" stop-color="#032A0A"/>
</linearGradient>
</defs>
</svg>
