<svg width="1098" height="1098" viewBox="0 0 1098 1098" fill="none" xmlns="http://www.w3.org/2000/svg">
<circle cx="549" cy="549" r="483" fill="#B2B2B2" fill-opacity="0.5"/>
<circle cx="549" cy="549" r="503.553" stroke="white" stroke-opacity="0.5" stroke-width="41.1064"/>
<g filter="url(#filter0_d_19_20)">
<path d="M500.827 202.658C500.827 175.994 522.442 154.379 549.106 154.379C575.769 154.379 597.385 175.994 597.385 202.658V231.542C597.385 204.879 619 183.264 645.664 183.264C672.327 183.264 693.943 204.879 693.943 231.542V326.45C693.943 299.786 715.558 278.171 742.222 278.171C768.885 278.171 790.501 299.786 790.501 326.45V807.176C790.501 875.545 735.077 930.969 666.708 930.969H431.503C363.134 930.969 307.711 875.545 307.711 807.176V613.235H404.269V247.223C404.269 220.559 425.884 198.944 452.548 198.944C479.211 198.944 500.827 220.559 500.827 247.223V202.658Z" fill="white" fill-opacity="0.8" shape-rendering="crispEdges"/>
<path d="M593.671 202.658V231.542H597.385H601.098C601.098 206.93 621.051 186.977 645.664 186.977C670.276 186.977 690.229 206.93 690.229 231.542V326.45H693.943H697.656C697.656 301.837 717.609 281.885 742.222 281.885C766.834 281.885 786.787 301.837 786.787 326.45V807.176C786.787 873.494 733.026 927.255 666.708 927.255H431.503C365.185 927.255 311.424 873.494 311.424 807.176V616.949H404.269H407.982V613.235V247.223C407.982 222.61 427.935 202.658 452.548 202.658C477.16 202.658 497.113 222.61 497.113 247.223H500.827H504.54V202.658C504.54 178.045 524.493 158.092 549.106 158.092C573.718 158.092 593.671 178.045 593.671 202.658Z" stroke="#8B8B8B" stroke-opacity="0.8" stroke-width="7.42754" shape-rendering="crispEdges"/>
</g>
<path d="M604.812 238.557V231.13H589.957V238.557H604.812ZM589.957 530.707C589.957 534.809 593.282 538.135 597.384 538.135C601.486 538.135 604.812 534.809 604.812 530.707H589.957ZM589.957 238.557V530.707H604.812V238.557H589.957Z" fill="#8B8B8B" fill-opacity="0.8"/>
<path d="M508.254 253.412V245.985H493.399V253.412H508.254ZM493.399 545.562C493.399 549.664 496.724 552.99 500.826 552.99C504.928 552.99 508.254 549.664 508.254 545.562H493.399ZM493.399 253.412V545.562H508.254V253.412H493.399Z" fill="#8B8B8B" fill-opacity="0.8"/>
<path d="M411.696 605.808L411.696 601.681L403.443 601.681L403.443 605.808L411.696 605.808ZM403.443 655.325C403.443 657.604 405.291 659.451 407.57 659.451C409.849 659.451 411.696 657.604 411.696 655.325L403.443 655.325ZM403.443 605.808L403.443 655.325L411.696 655.325L411.696 605.808L403.443 605.808Z" fill="#8B8B8B" fill-opacity="0.8"/>
<path d="M701.369 333.465L701.369 326.037L686.514 326.037L686.514 333.465L701.369 333.465ZM686.514 540.611C686.514 544.713 689.84 548.038 693.942 548.038C698.044 548.038 701.369 544.713 701.369 540.611L686.514 540.611ZM686.514 333.465L686.514 540.611L701.369 540.611L701.369 333.465L686.514 333.465Z" fill="#8B8B8B" fill-opacity="0.8"/>
<g filter="url(#filter1_d_19_20)">
<path d="M355.989 445.703C329.325 445.703 307.71 467.318 307.71 493.982V763.864C306.863 773.481 306.472 783.423 306.472 793.559C306.472 881.299 364.308 934.682 452.96 934.682C541.611 934.682 572.626 898.63 572.626 810.89C572.626 723.15 537.138 685.447 436.454 659.038C424.789 655.979 414.082 654.256 404.268 653.738V493.982C404.268 467.318 382.653 445.703 355.989 445.703Z" fill="#ECECEC"/>
<path d="M311.41 764.19L311.424 764.027V763.864V493.982C311.424 469.369 331.376 449.417 355.989 449.417C380.602 449.417 400.554 469.369 400.554 493.982V653.738V657.261L404.072 657.446C413.598 657.949 424.053 659.625 435.512 662.631C485.659 675.784 518.829 691.584 539.544 714.458C560.14 737.201 568.912 767.501 568.912 810.89C568.912 854.488 561.171 884.22 543.334 903.141C525.549 922.008 496.915 930.969 452.96 930.969C409.375 930.969 373.742 917.856 349.032 894.333C324.345 870.832 310.186 836.585 310.186 793.559C310.186 783.517 310.573 773.685 311.41 764.19Z" stroke="#8B8B8B" stroke-opacity="0.8" stroke-width="7.42754"/>
</g>
<defs>
<filter id="filter0_d_19_20" x="298.359" y="77.2014" width="589.872" height="883.672" filterUnits="userSpaceOnUse" color-interpolation-filters="sRGB">
<feFlood flood-opacity="0" result="BackgroundImageFix"/>
<feColorMatrix in="SourceAlpha" type="matrix" values="0 0 0 0 0 0 0 0 0 0 0 0 0 0 0 0 0 0 127 0" result="hardAlpha"/>
<feOffset dx="44.1894" dy="-23.6362"/>
<feGaussianBlur stdDeviation="26.7705"/>
<feComposite in2="hardAlpha" operator="out"/>
<feColorMatrix type="matrix" values="0 0 0 0 0 0 0 0 0 0 0 0 0 0 0 0 0 0 0.25 0"/>
<feBlend mode="normal" in2="BackgroundImageFix" result="effect1_dropShadow_19_20"/>
<feBlend mode="normal" in="SourceGraphic" in2="effect1_dropShadow_19_20" result="shape"/>
</filter>
<filter id="filter1_d_19_20" x="278.212" y="392.779" width="343.228" height="566.054" filterUnits="userSpaceOnUse" color-interpolation-filters="sRGB">
<feFlood flood-opacity="0" result="BackgroundImageFix"/>
<feColorMatrix in="SourceAlpha" type="matrix" values="0 0 0 0 0 0 0 0 0 0 0 0 0 0 0 0 0 0 127 0" result="hardAlpha"/>
<feOffset dx="10.2766" dy="-14.3872"/>
<feGaussianBlur stdDeviation="19.2686"/>
<feComposite in2="hardAlpha" operator="out"/>
<feColorMatrix type="matrix" values="0 0 0 0 0 0 0 0 0 0 0 0 0 0 0 0 0 0 0.25 0"/>
<feBlend mode="normal" in2="BackgroundImageFix" result="effect1_dropShadow_19_20"/>
<feBlend mode="normal" in="SourceGraphic" in2="effect1_dropShadow_19_20" result="shape"/>
</filter>
</defs>
</svg>
