<svg width="1098" height="1098" viewBox="0 0 1098 1098" fill="none" xmlns="http://www.w3.org/2000/svg">
<circle cx="549" cy="549" r="483" fill="#B2B2B2" fill-opacity="0.5"/>
<circle cx="549" cy="549" r="503.553" stroke="white" stroke-opacity="0.5" stroke-width="41.1064"/>
<g filter="url(#filter0_d_19_16)">
<path d="M338.619 348.986H465.272C465.272 348.986 465.273 348.986 465.273 648.491C465.273 947.996 627.742 954.225 627.742 954.225C627.742 954.225 338.619 947.996 338.619 648.491C338.619 348.986 338.619 348.986 338.619 348.986Z" fill="#BDBDBD" fill-opacity="0.8" shape-rendering="crispEdges"/>
<path d="M412.992 139.302C408.101 131.575 396.829 131.575 391.938 139.302L271.166 330.125C265.916 338.42 271.876 349.245 281.692 349.245H523.237C533.054 349.245 539.014 338.42 533.764 330.125L412.992 139.302Z" fill="#BDBDBD" fill-opacity="0.8" shape-rendering="crispEdges"/>
</g>
<g filter="url(#filter1_d_19_16)">
<path d="M583.287 290.548C605.959 280.05 670.429 301.472 701.902 313.107C708.7 315.621 708.94 324.889 702.363 327.934L674.7 340.743C688.266 354.111 696.676 372.697 696.676 393.248C696.676 433.956 663.676 466.956 622.968 466.956C584.105 466.956 552.267 436.88 549.46 398.734L532.662 406.513C526.022 409.587 519.075 403.274 521.694 396.441C533.919 364.539 560.646 301.032 583.287 290.548Z" fill="white" fill-opacity="0.8" shape-rendering="crispEdges"/>
<path d="M678.869 481.383C704.361 478.427 772.198 469.237 786.136 453.818C811.76 436.405 790.904 411.564 770.054 386.729C755.111 368.931 740.171 351.136 742.344 336.081C746.349 308.341 866.486 386.267 861.861 446.621C859.059 483.184 828.002 501.734 805.162 513.154C791.373 520.049 758.593 540.525 733.426 556.551L720.719 644.421C720.263 647.57 720.034 650.748 720.034 653.93V693.655C749.804 694.147 791.025 698.088 799.453 715.592C812.949 743.622 700.829 944.503 681.104 911.283C671.362 894.875 690.11 859.98 706.829 828.862C723.961 796.976 738.961 769.057 718.996 769.057H662.936L662.984 768.918C659.916 769.352 656.781 769.576 653.593 769.576H613.287C611.344 789.327 607.165 813.499 598.453 837.084C585.616 871.833 484.358 1002.09 471.863 971.348C466.897 959.13 476.859 942.924 490.094 921.392C504.25 898.361 522.152 869.236 529.534 832.384C534.071 809.736 534.725 755.042 534.725 755.042L534.817 755.008C534.641 754.008 534.549 752.979 534.549 751.928V655.597C534.549 651.31 534.134 647.033 533.31 642.825L522.271 586.467C507.556 588.089 491.771 590.885 479.446 595.687C449.032 607.536 428.85 640.954 414.092 665.392C404.537 681.215 397.255 693.272 390.942 693.272C364.988 693.272 389.652 598.827 424.424 555.718C454.977 517.838 525.268 494.651 555.143 486.182C563.367 482.509 572.515 480.452 582.223 480.452H667.69C671.508 480.452 675.242 480.772 678.869 481.383Z" fill="white" fill-opacity="0.8" shape-rendering="crispEdges"/>
</g>
<defs>
<filter id="filter0_d_19_16" x="199.745" y="125.696" width="444.029" height="906.22" filterUnits="userSpaceOnUse" color-interpolation-filters="sRGB">
<feFlood flood-opacity="0" result="BackgroundImageFix"/>
<feColorMatrix in="SourceAlpha" type="matrix" values="0 0 0 0 0 0 0 0 0 0 0 0 0 0 0 0 0 0 127 0" result="hardAlpha"/>
<feOffset dx="-26.7192" dy="34.9404"/>
<feGaussianBlur stdDeviation="21.3753"/>
<feComposite in2="hardAlpha" operator="out"/>
<feColorMatrix type="matrix" values="0 0 0 0 0 0 0 0 0 0 0 0 0 0 0 0 0 0 0.25 0"/>
<feBlend mode="normal" in2="BackgroundImageFix" result="effect1_dropShadow_19_16"/>
<feBlend mode="normal" in="SourceGraphic" in2="effect1_dropShadow_19_16" result="shape"/>
</filter>
<filter id="filter1_d_19_16" x="324.446" y="281.363" width="543.917" height="750.34" filterUnits="userSpaceOnUse" color-interpolation-filters="sRGB">
<feFlood flood-opacity="0" result="BackgroundImageFix"/>
<feColorMatrix in="SourceAlpha" type="matrix" values="0 0 0 0 0 0 0 0 0 0 0 0 0 0 0 0 0 0 127 0" result="hardAlpha"/>
<feOffset dx="-24.6638" dy="24.6638"/>
<feGaussianBlur stdDeviation="15.5177"/>
<feComposite in2="hardAlpha" operator="out"/>
<feColorMatrix type="matrix" values="0 0 0 0 0 0 0 0 0 0 0 0 0 0 0 0 0 0 0.25 0"/>
<feBlend mode="normal" in2="BackgroundImageFix" result="effect1_dropShadow_19_16"/>
<feBlend mode="normal" in="SourceGraphic" in2="effect1_dropShadow_19_16" result="shape"/>
</filter>
</defs>
</svg>
